<svg xmlns="http://www.w3.org/2000/svg" xmlns:xlink="http://www.w3.org/1999/xlink" width="1300" zoomAndPan="magnify" viewBox="0 0 974.88 112.499997" height="150" preserveAspectRatio="xMidYMid meet" version="1.0"><defs><g/><clipPath id="393c7b3579"><path d="M 2.097656 0 L 972.664062 0 L 972.664062 112.003906 L 2.097656 112.003906 Z M 2.097656 0 " clip-rule="nonzero"/></clipPath></defs><g clip-path="url(#393c7b3579)"><path fill="#ffffff" d="M 2.097656 0 L 972.78125 0 L 972.78125 119.46875 L 2.097656 119.46875 Z M 2.097656 0 " fill-opacity="1" fill-rule="nonzero"/><path fill="#ffffff" d="M 2.097656 0 L 972.78125 0 L 972.78125 112.003906 L 2.097656 112.003906 Z M 2.097656 0 " fill-opacity="1" fill-rule="nonzero"/><path fill="#ffffff" d="M 2.097656 0 L 972.78125 0 L 972.78125 112.003906 L 2.097656 112.003906 Z M 2.097656 0 " fill-opacity="1" fill-rule="nonzero"/></g><g fill="#000000" fill-opacity="1"><g transform="translate(68.987298, 92.090695)"><g><path d="M 3.421875 0 L 3.421875 -77.296875 L 34.375 -77.296875 L 34.375 -62.265625 L 18.984375 -62.265625 L 18.984375 -49.9375 L 33.5625 -49.9375 L 33.5625 -35.09375 L 18.984375 -35.09375 L 18.984375 0 Z M 3.421875 0 "/></g></g></g><g fill="#000000" fill-opacity="1"><g transform="translate(104.88971, 92.090695)"><g><path d="M 21.859375 0.71875 C 15.628906 0.71875 10.894531 -1.179688 7.65625 -4.984375 C 4.414062 -8.796875 2.796875 -14.15625 2.796875 -21.0625 L 2.796875 -57.859375 C 2.796875 -64.515625 4.414062 -69.535156 7.65625 -72.921875 C 10.894531 -76.316406 15.628906 -78.015625 21.859375 -78.015625 C 28.097656 -78.015625 32.835938 -76.316406 36.078125 -72.921875 C 39.316406 -69.535156 40.9375 -64.515625 40.9375 -57.859375 L 40.9375 -21.0625 C 40.9375 -14.101562 39.316406 -8.734375 36.078125 -4.953125 C 32.835938 -1.171875 28.097656 0.71875 21.859375 0.71875 Z M 21.859375 -13.5 C 23.242188 -13.5 24.175781 -14.097656 24.65625 -15.296875 C 25.132812 -16.492188 25.375 -18.175781 25.375 -20.34375 L 25.375 -58.125 C 25.375 -59.8125 25.148438 -61.175781 24.703125 -62.21875 C 24.253906 -63.269531 23.335938 -63.796875 21.953125 -63.796875 C 19.378906 -63.796875 18.09375 -61.847656 18.09375 -57.953125 L 18.09375 -20.25 C 18.09375 -18.03125 18.359375 -16.347656 18.890625 -15.203125 C 19.429688 -14.066406 20.421875 -13.5 21.859375 -13.5 Z M 21.859375 -13.5 "/></g></g></g><g fill="#000000" fill-opacity="1"><g transform="translate(148.620468, 92.090695)"><g><path d="M 21.859375 0.71875 C 15.628906 0.71875 10.894531 -1.179688 7.65625 -4.984375 C 4.414062 -8.796875 2.796875 -14.15625 2.796875 -21.0625 L 2.796875 -57.859375 C 2.796875 -64.515625 4.414062 -69.535156 7.65625 -72.921875 C 10.894531 -76.316406 15.628906 -78.015625 21.859375 -78.015625 C 28.097656 -78.015625 32.835938 -76.316406 36.078125 -72.921875 C 39.316406 -69.535156 40.9375 -64.515625 40.9375 -57.859375 L 40.9375 -21.0625 C 40.9375 -14.101562 39.316406 -8.734375 36.078125 -4.953125 C 32.835938 -1.171875 28.097656 0.71875 21.859375 0.71875 Z M 21.859375 -13.5 C 23.242188 -13.5 24.175781 -14.097656 24.65625 -15.296875 C 25.132812 -16.492188 25.375 -18.175781 25.375 -20.34375 L 25.375 -58.125 C 25.375 -59.8125 25.148438 -61.175781 24.703125 -62.21875 C 24.253906 -63.269531 23.335938 -63.796875 21.953125 -63.796875 C 19.378906 -63.796875 18.09375 -61.847656 18.09375 -57.953125 L 18.09375 -20.25 C 18.09375 -18.03125 18.359375 -16.347656 18.890625 -15.203125 C 19.429688 -14.066406 20.421875 -13.5 21.859375 -13.5 Z M 21.859375 -13.5 "/></g></g></g><g fill="#000000" fill-opacity="1"><g transform="translate(192.351227, 92.090695)"><g><path d="M 10.078125 0 L 10.078125 -62.453125 L 0.90625 -62.453125 L 0.90625 -77.296875 L 34.734375 -77.296875 L 34.734375 -62.453125 L 25.5625 -62.453125 L 25.5625 0 Z M 10.078125 0 "/></g></g></g><g fill="#000000" fill-opacity="1"><g transform="translate(227.983699, 92.090695)"><g><path d="M 3.421875 -77.296875 L 24.390625 -77.296875 C 30.023438 -77.296875 34.117188 -75.914062 36.671875 -73.15625 C 39.222656 -70.394531 40.5 -65.894531 40.5 -59.65625 L 40.5 -56.234375 C 40.5 -48.859375 37.859375 -44.453125 32.578125 -43.015625 C 35.816406 -42.171875 38.09375 -40.21875 39.40625 -37.15625 C 40.726562 -34.101562 41.390625 -30.054688 41.390625 -25.015625 C 41.390625 -16.796875 40.160156 -10.570312 37.703125 -6.34375 C 35.242188 -2.113281 30.804688 0 24.390625 0 L 3.421875 0 Z M 21.6875 -48.234375 C 23.007812 -48.234375 23.910156 -48.726562 24.390625 -49.71875 C 24.867188 -50.707031 25.109375 -52.101562 25.109375 -53.90625 L 25.109375 -61.640625 C 25.109375 -64.160156 24 -65.421875 21.78125 -65.421875 L 18.53125 -65.421875 L 18.53125 -48.234375 Z M 20.0625 -13.59375 C 24.082031 -13.59375 26.09375 -15.507812 26.09375 -19.34375 L 26.09375 -28.96875 C 26.09375 -31.3125 25.75 -33.082031 25.0625 -34.28125 C 24.375 -35.476562 23.160156 -36.078125 21.421875 -36.078125 L 18.53125 -36.078125 L 18.53125 -13.671875 Z M 20.0625 -13.59375 "/></g></g></g><g fill="#000000" fill-opacity="1"><g transform="translate(271.084589, 92.090695)"><g><path d="M 1.34375 0 L 8.8125 -77.296875 L 35 -77.296875 L 42.375 0 L 27.71875 0 L 26.640625 -12.515625 L 17.28125 -12.515625 L 16.375 0 Z M 18.453125 -24.828125 L 25.46875 -24.828125 L 22.046875 -64.15625 L 21.328125 -64.15625 Z M 18.453125 -24.828125 "/></g></g></g><g fill="#000000" fill-opacity="1"><g transform="translate(314.725368, 92.090695)"><g><path d="M 3.421875 0 L 3.421875 -77.296875 L 18.890625 -77.296875 L 18.890625 -13.140625 L 34.828125 -13.140625 L 34.828125 0 Z M 3.421875 0 "/></g></g></g><g fill="#000000" fill-opacity="1"><g transform="translate(350.447811, 92.090695)"><g><path d="M 3.421875 0 L 3.421875 -77.296875 L 18.890625 -77.296875 L 18.890625 -13.140625 L 34.828125 -13.140625 L 34.828125 0 Z M 3.421875 0 "/></g></g></g><g fill="#000000" fill-opacity="1"><g transform="translate(386.170273, 92.090695)"><g/></g></g><g fill="#000000" fill-opacity="1"><g transform="translate(407.225829, 92.090695)"><g><path d="M 2.703125 0 L 2.703125 -77.296875 L 17.640625 -77.296875 L 17.640625 0 Z M 2.703125 0 "/></g></g></g><g fill="#000000" fill-opacity="1"><g transform="translate(427.651518, 92.090695)"><g><path d="M 21.78125 0.71875 C 14.757812 0.71875 9.6875 -1.019531 6.5625 -4.5 C 3.445312 -7.976562 1.890625 -13.585938 1.890625 -21.328125 L 1.890625 -28.890625 L 17.09375 -28.890625 L 17.09375 -19.25 C 17.09375 -15.414062 18.320312 -13.5 20.78125 -13.5 C 22.164062 -13.5 23.125 -13.898438 23.65625 -14.703125 C 24.195312 -15.515625 24.46875 -16.882812 24.46875 -18.8125 C 24.46875 -21.332031 24.164062 -23.414062 23.5625 -25.0625 C 22.96875 -26.707031 22.207031 -28.082031 21.28125 -29.1875 C 20.351562 -30.300781 18.6875 -32.03125 16.28125 -34.375 L 9.625 -41.03125 C 4.46875 -46.070312 1.890625 -51.648438 1.890625 -57.765625 C 1.890625 -64.367188 3.40625 -69.394531 6.4375 -72.84375 C 9.46875 -76.289062 13.890625 -78.015625 19.703125 -78.015625 C 26.660156 -78.015625 31.671875 -76.171875 34.734375 -72.484375 C 37.796875 -68.796875 39.328125 -63.019531 39.328125 -55.15625 L 23.578125 -55.15625 L 23.484375 -60.46875 C 23.484375 -61.488281 23.195312 -62.296875 22.625 -62.890625 C 22.0625 -63.492188 21.269531 -63.796875 20.25 -63.796875 C 19.050781 -63.796875 18.148438 -63.460938 17.546875 -62.796875 C 16.941406 -62.140625 16.640625 -61.242188 16.640625 -60.109375 C 16.640625 -57.585938 18.082031 -54.976562 20.96875 -52.28125 L 29.96875 -43.640625 C 32.0625 -41.597656 33.796875 -39.660156 35.171875 -37.828125 C 36.554688 -36.003906 37.664062 -33.847656 38.5 -31.359375 C 39.34375 -28.867188 39.765625 -25.914062 39.765625 -22.5 C 39.765625 -14.875 38.367188 -9.097656 35.578125 -5.171875 C 32.796875 -1.242188 28.195312 0.71875 21.78125 0.71875 Z M 21.78125 0.71875 "/></g></g></g><g fill="#000000" fill-opacity="1"><g transform="translate(469.132762, 92.090695)"><g/></g></g><g fill="#000000" fill-opacity="1"><g transform="translate(490.188318, 92.090695)"><g><path d="M 3.421875 0 L 3.421875 -77.296875 L 19.34375 -77.296875 L 26.453125 -40.3125 L 26.453125 -77.296875 L 41.390625 -77.296875 L 41.390625 0 L 26.28125 0 L 18.53125 -38.6875 L 18.53125 0 Z M 3.421875 0 "/></g></g></g><g fill="#000000" fill-opacity="1"><g transform="translate(534.998844, 92.090695)"><g><path d="M 3.421875 0 L 3.421875 -77.296875 L 34.375 -77.296875 L 34.375 -62.359375 L 19.171875 -62.359375 L 19.171875 -47.328125 L 33.75 -47.328125 L 33.75 -32.75 L 19.171875 -32.75 L 19.171875 -15.03125 L 35.359375 -15.03125 L 35.359375 0 Z M 3.421875 0 "/></g></g></g><g fill="#000000" fill-opacity="1"><g transform="translate(572.071012, 92.090695)"><g><path d="M 10.53125 0 L 0.984375 -77.390625 L 15.75 -77.390625 L 21.421875 -24.75 L 26.453125 -77.390625 L 41.21875 -77.390625 L 31.671875 0 Z M 10.53125 0 "/></g></g></g><g fill="#000000" fill-opacity="1"><g transform="translate(614.272095, 92.090695)"><g><path d="M 3.421875 0 L 3.421875 -77.296875 L 34.375 -77.296875 L 34.375 -62.359375 L 19.171875 -62.359375 L 19.171875 -47.328125 L 33.75 -47.328125 L 33.75 -32.75 L 19.171875 -32.75 L 19.171875 -15.03125 L 35.359375 -15.03125 L 35.359375 0 Z M 3.421875 0 "/></g></g></g><g fill="#000000" fill-opacity="1"><g transform="translate(651.344263, 92.090695)"><g><path d="M 3.421875 -77.296875 L 27.171875 -77.296875 C 30.953125 -77.296875 33.875 -76.441406 35.9375 -74.734375 C 38.007812 -73.023438 39.40625 -70.625 40.125 -67.53125 C 40.851562 -64.445312 41.21875 -60.503906 41.21875 -55.703125 C 41.21875 -51.316406 40.644531 -47.894531 39.5 -45.4375 C 38.363281 -42.976562 36.382812 -41.269531 33.5625 -40.3125 C 35.90625 -39.832031 37.597656 -38.660156 38.640625 -36.796875 C 39.691406 -34.941406 40.21875 -32.425781 40.21875 -29.25 L 40.046875 0 L 24.921875 0 L 24.921875 -30.234375 C 24.921875 -32.390625 24.5 -33.769531 23.65625 -34.375 C 22.820312 -34.976562 21.296875 -35.28125 19.078125 -35.28125 L 19.078125 0 L 3.421875 0 Z M 22.859375 -48.6875 C 25.015625 -48.6875 26.09375 -51.023438 26.09375 -55.703125 C 26.09375 -57.742188 26.003906 -59.269531 25.828125 -60.28125 C 25.648438 -61.300781 25.316406 -62.003906 24.828125 -62.390625 C 24.347656 -62.785156 23.660156 -62.984375 22.765625 -62.984375 L 19.171875 -62.984375 L 19.171875 -48.6875 Z M 22.859375 -48.6875 "/></g></g></g><g fill="#000000" fill-opacity="1"><g transform="translate(694.265185, 92.090695)"><g/></g></g><g fill="#000000" fill-opacity="1"><g transform="translate(715.320703, 92.090695)"><g><path d="M 3.421875 -77.296875 L 24.75 -77.296875 C 30.269531 -77.296875 34.40625 -75.765625 37.15625 -72.703125 C 39.914062 -69.648438 41.328125 -65.125 41.390625 -59.125 L 41.578125 -22.953125 C 41.628906 -15.328125 40.304688 -9.59375 37.609375 -5.75 C 34.910156 -1.914062 30.441406 0 24.203125 0 L 3.421875 0 Z M 21.6875 -13.671875 C 24.507812 -13.671875 25.921875 -15.050781 25.921875 -17.8125 L 25.921875 -57.6875 C 25.921875 -59.425781 25.785156 -60.726562 25.515625 -61.59375 C 25.242188 -62.46875 24.75 -63.050781 24.03125 -63.34375 C 23.3125 -63.644531 22.203125 -63.796875 20.703125 -63.796875 L 18.984375 -63.796875 L 18.984375 -13.671875 Z M 21.6875 -13.671875 "/></g></g></g><g fill="#000000" fill-opacity="1"><g transform="translate(759.681339, 92.090695)"><g><path d="M 21.859375 0.71875 C 15.628906 0.71875 10.894531 -1.179688 7.65625 -4.984375 C 4.414062 -8.796875 2.796875 -14.15625 2.796875 -21.0625 L 2.796875 -57.859375 C 2.796875 -64.515625 4.414062 -69.535156 7.65625 -72.921875 C 10.894531 -76.316406 15.628906 -78.015625 21.859375 -78.015625 C 28.097656 -78.015625 32.835938 -76.316406 36.078125 -72.921875 C 39.316406 -69.535156 40.9375 -64.515625 40.9375 -57.859375 L 40.9375 -21.0625 C 40.9375 -14.101562 39.316406 -8.734375 36.078125 -4.953125 C 32.835938 -1.171875 28.097656 0.71875 21.859375 0.71875 Z M 21.859375 -13.5 C 23.242188 -13.5 24.175781 -14.097656 24.65625 -15.296875 C 25.132812 -16.492188 25.375 -18.175781 25.375 -20.34375 L 25.375 -58.125 C 25.375 -59.8125 25.148438 -61.175781 24.703125 -62.21875 C 24.253906 -63.269531 23.335938 -63.796875 21.953125 -63.796875 C 19.378906 -63.796875 18.09375 -61.847656 18.09375 -57.953125 L 18.09375 -20.25 C 18.09375 -18.03125 18.359375 -16.347656 18.890625 -15.203125 C 19.429688 -14.066406 20.421875 -13.5 21.859375 -13.5 Z M 21.859375 -13.5 "/></g></g></g><g fill="#000000" fill-opacity="1"><g transform="translate(803.412068, 92.090695)"><g><path d="M 3.421875 0 L 3.421875 -77.296875 L 19.34375 -77.296875 L 26.453125 -40.3125 L 26.453125 -77.296875 L 41.390625 -77.296875 L 41.390625 0 L 26.28125 0 L 18.53125 -38.6875 L 18.53125 0 Z M 3.421875 0 "/></g></g></g><g fill="#000000" fill-opacity="1"><g transform="translate(848.222594, 92.090695)"><g><path d="M 3.421875 0 L 3.421875 -77.296875 L 34.375 -77.296875 L 34.375 -62.359375 L 19.171875 -62.359375 L 19.171875 -47.328125 L 33.75 -47.328125 L 33.75 -32.75 L 19.171875 -32.75 L 19.171875 -15.03125 L 35.359375 -15.03125 L 35.359375 0 Z M 3.421875 0 "/></g></g></g><g fill="#000000" fill-opacity="1"><g transform="translate(885.294762, 92.090695)"><g><path d="M 2.421875 0 L 2.421875 -13.140625 L 18.171875 -13.140625 L 18.171875 0 Z M 2.421875 0 "/></g></g></g></svg>