<svg xmlns="http://www.w3.org/2000/svg" xmlns:xlink="http://www.w3.org/1999/xlink" width="1300" zoomAndPan="magnify" viewBox="0 0 974.88 112.499997" height="150" preserveAspectRatio="xMidYMid meet" version="1.0"><defs><g/><clipPath id="386099d30e"><path d="M 2.097656 0 L 972.664062 0 L 972.664062 112.003906 L 2.097656 112.003906 Z M 2.097656 0 " clip-rule="nonzero"/></clipPath></defs><g clip-path="url(#386099d30e)"><path fill="#ffffff" d="M 2.097656 0 L 972.78125 0 L 972.78125 119.46875 L 2.097656 119.46875 Z M 2.097656 0 " fill-opacity="1" fill-rule="nonzero"/><path fill="#ffffff" d="M 2.097656 0 L 972.78125 0 L 972.78125 112.003906 L 2.097656 112.003906 Z M 2.097656 0 " fill-opacity="1" fill-rule="nonzero"/><path fill="#ffffff" d="M 2.097656 0 L 972.78125 0 L 972.78125 112.003906 L 2.097656 112.003906 Z M 2.097656 0 " fill-opacity="1" fill-rule="nonzero"/></g><g fill="#000000" fill-opacity="1"><g transform="translate(20.169116, 86.988304)"><g><path d="M 20.234375 0.6875 C 14.910156 0.6875 10.644531 -0.984375 7.4375 -4.328125 C 4.238281 -7.679688 2.640625 -12.273438 2.640625 -18.109375 L 2.640625 -51.78125 C 2.640625 -59.03125 4.082031 -64.492188 6.96875 -68.171875 C 9.863281 -71.859375 14.398438 -73.703125 20.578125 -73.703125 C 25.960938 -73.703125 30.296875 -72.226562 33.578125 -69.28125 C 36.867188 -66.332031 38.515625 -62.082031 38.515625 -56.53125 L 38.515625 -43.953125 L 23.96875 -43.953125 L 23.96875 -54.75 C 23.96875 -56.84375 23.710938 -58.285156 23.203125 -59.078125 C 22.691406 -59.878906 21.816406 -60.28125 20.578125 -60.28125 C 19.273438 -60.28125 18.378906 -59.828125 17.890625 -58.921875 C 17.410156 -58.015625 17.171875 -56.679688 17.171875 -54.921875 L 17.171875 -18.28125 C 17.171875 -16.351562 17.453125 -14.945312 18.015625 -14.0625 C 18.585938 -13.1875 19.441406 -12.75 20.578125 -12.75 C 22.835938 -12.75 23.96875 -14.59375 23.96875 -18.28125 L 23.96875 -31.453125 L 38.6875 -31.453125 L 38.6875 -17.6875 C 38.6875 -5.4375 32.535156 0.6875 20.234375 0.6875 Z M 20.234375 0.6875 "/></g></g></g><g fill="#000000" fill-opacity="1"><g transform="translate(60.461461, 86.988304)"><g><path d="M 3.234375 -73.03125 L 25.671875 -73.03125 C 29.242188 -73.03125 32.003906 -72.222656 33.953125 -70.609375 C 35.910156 -68.992188 37.226562 -66.722656 37.90625 -63.796875 C 38.59375 -60.878906 38.9375 -57.15625 38.9375 -52.625 C 38.9375 -48.488281 38.394531 -45.257812 37.3125 -42.9375 C 36.238281 -40.613281 34.367188 -39 31.703125 -38.09375 C 33.921875 -37.632812 35.523438 -36.523438 36.515625 -34.765625 C 37.503906 -33.015625 38 -30.632812 38 -27.625 L 37.828125 0 L 23.546875 0 L 23.546875 -28.5625 C 23.546875 -30.601562 23.148438 -31.90625 22.359375 -32.46875 C 21.566406 -33.039062 20.117188 -33.328125 18.015625 -33.328125 L 18.015625 0 L 3.234375 0 Z M 21.59375 -46 C 23.632812 -46 24.65625 -48.207031 24.65625 -52.625 C 24.65625 -54.550781 24.566406 -55.992188 24.390625 -56.953125 C 24.222656 -57.921875 23.910156 -58.585938 23.453125 -58.953125 C 23.003906 -59.328125 22.359375 -59.515625 21.515625 -59.515625 L 18.109375 -59.515625 L 18.109375 -46 Z M 21.59375 -46 "/></g></g></g><g fill="#000000" fill-opacity="1"><g transform="translate(101.008824, 86.988304)"><g><path d="M 2.546875 0 L 2.546875 -73.03125 L 16.65625 -73.03125 L 16.65625 0 Z M 2.546875 0 "/></g></g></g><g fill="#000000" fill-opacity="1"><g transform="translate(120.304948, 86.988304)"><g><path d="M 20.234375 0.6875 C 14.910156 0.6875 10.644531 -0.984375 7.4375 -4.328125 C 4.238281 -7.679688 2.640625 -12.273438 2.640625 -18.109375 L 2.640625 -51.78125 C 2.640625 -59.03125 4.082031 -64.492188 6.96875 -68.171875 C 9.863281 -71.859375 14.398438 -73.703125 20.578125 -73.703125 C 25.960938 -73.703125 30.296875 -72.226562 33.578125 -69.28125 C 36.867188 -66.332031 38.515625 -62.082031 38.515625 -56.53125 L 38.515625 -43.953125 L 23.96875 -43.953125 L 23.96875 -54.75 C 23.96875 -56.84375 23.710938 -58.285156 23.203125 -59.078125 C 22.691406 -59.878906 21.816406 -60.28125 20.578125 -60.28125 C 19.273438 -60.28125 18.378906 -59.828125 17.890625 -58.921875 C 17.410156 -58.015625 17.171875 -56.679688 17.171875 -54.921875 L 17.171875 -18.28125 C 17.171875 -16.351562 17.453125 -14.945312 18.015625 -14.0625 C 18.585938 -13.1875 19.441406 -12.75 20.578125 -12.75 C 22.835938 -12.75 23.96875 -14.59375 23.96875 -18.28125 L 23.96875 -31.453125 L 38.6875 -31.453125 L 38.6875 -17.6875 C 38.6875 -5.4375 32.535156 0.6875 20.234375 0.6875 Z M 20.234375 0.6875 "/></g></g></g><g fill="#000000" fill-opacity="1"><g transform="translate(160.597292, 86.988304)"><g><path d="M 3.234375 0 L 3.234375 -73.03125 L 17.6875 -73.03125 L 17.6875 -43.78125 L 24.484375 -73.03125 L 39.1875 -73.03125 L 31.03125 -39.625 L 40.890625 0 L 25.765625 0 L 17.765625 -35.359375 L 17.765625 0 Z M 3.234375 0 "/></g></g></g><g fill="#000000" fill-opacity="1"><g transform="translate(200.719634, 86.988304)"><g><path d="M 3.234375 0 L 3.234375 -73.03125 L 32.46875 -73.03125 L 32.46875 -58.921875 L 18.109375 -58.921875 L 18.109375 -44.71875 L 31.875 -44.71875 L 31.875 -30.953125 L 18.109375 -30.953125 L 18.109375 -14.203125 L 33.40625 -14.203125 L 33.40625 0 Z M 3.234375 0 "/></g></g></g><g fill="#000000" fill-opacity="1"><g transform="translate(235.741686, 86.988304)"><g><path d="M 9.515625 0 L 9.515625 -59 L 0.84375 -59 L 0.84375 -73.03125 L 32.8125 -73.03125 L 32.8125 -59 L 24.140625 -59 L 24.140625 0 Z M 9.515625 0 "/></g></g></g><g fill="#000000" fill-opacity="1"><g transform="translate(269.403643, 86.988304)"><g/></g></g><g fill="#000000" fill-opacity="1"><g transform="translate(289.29479, 86.988304)"><g><path d="M 2.546875 0 L 2.546875 -73.03125 L 16.65625 -73.03125 L 16.65625 0 Z M 2.546875 0 "/></g></g></g><g fill="#000000" fill-opacity="1"><g transform="translate(308.590925, 86.988304)"><g><path d="M 20.578125 0.6875 C 13.941406 0.6875 9.148438 -0.957031 6.203125 -4.25 C 3.253906 -7.539062 1.78125 -12.84375 1.78125 -20.15625 L 1.78125 -27.296875 L 16.15625 -27.296875 L 16.15625 -18.1875 C 16.15625 -14.5625 17.316406 -12.75 19.640625 -12.75 C 20.941406 -12.75 21.847656 -13.128906 22.359375 -13.890625 C 22.867188 -14.660156 23.125 -15.953125 23.125 -17.765625 C 23.125 -20.148438 22.835938 -22.117188 22.265625 -23.671875 C 21.703125 -25.234375 20.976562 -26.535156 20.09375 -27.578125 C 19.21875 -28.628906 17.648438 -30.257812 15.390625 -32.46875 L 9.09375 -38.765625 C 4.21875 -43.523438 1.78125 -48.796875 1.78125 -54.578125 C 1.78125 -60.816406 3.210938 -65.5625 6.078125 -68.8125 C 8.941406 -72.070312 13.125 -73.703125 18.625 -73.703125 C 25.195312 -73.703125 29.925781 -71.957031 32.8125 -68.46875 C 35.707031 -64.988281 37.15625 -59.535156 37.15625 -52.109375 L 22.28125 -52.109375 L 22.1875 -57.125 C 22.1875 -58.09375 21.914062 -58.859375 21.375 -59.421875 C 20.84375 -59.992188 20.09375 -60.28125 19.125 -60.28125 C 17.988281 -60.28125 17.140625 -59.96875 16.578125 -59.34375 C 16.015625 -58.71875 15.734375 -57.867188 15.734375 -56.796875 C 15.734375 -54.410156 17.09375 -51.941406 19.8125 -49.390625 L 28.3125 -41.234375 C 30.289062 -39.304688 31.929688 -37.476562 33.234375 -35.75 C 34.546875 -34.019531 35.597656 -31.976562 36.390625 -29.625 C 37.179688 -27.269531 37.578125 -24.476562 37.578125 -21.25 C 37.578125 -14.050781 36.257812 -8.59375 33.625 -4.875 C 30.988281 -1.164062 26.640625 0.6875 20.578125 0.6875 Z M 20.578125 0.6875 "/></g></g></g><g fill="#000000" fill-opacity="1"><g transform="translate(347.778207, 86.988304)"><g/></g></g><g fill="#000000" fill-opacity="1"><g transform="translate(367.669353, 86.988304)"><g><path d="M 3.234375 0 L 3.234375 -73.03125 L 17.859375 -73.03125 L 17.859375 -12.40625 L 32.90625 -12.40625 L 32.90625 0 Z M 3.234375 0 "/></g></g></g><g fill="#000000" fill-opacity="1"><g transform="translate(401.416307, 86.988304)"><g><path d="M 2.546875 0 L 2.546875 -73.03125 L 16.65625 -73.03125 L 16.65625 0 Z M 2.546875 0 "/></g></g></g><g fill="#000000" fill-opacity="1"><g transform="translate(420.712441, 86.988304)"><g><path d="M 3.234375 0 L 3.234375 -73.03125 L 32.46875 -73.03125 L 32.46875 -58.828125 L 17.9375 -58.828125 L 17.9375 -47.1875 L 31.703125 -47.1875 L 31.703125 -33.15625 L 17.9375 -33.15625 L 17.9375 0 Z M 3.234375 0 "/></g></g></g><g fill="#000000" fill-opacity="1"><g transform="translate(454.629431, 86.988304)"><g><path d="M 3.234375 0 L 3.234375 -73.03125 L 32.46875 -73.03125 L 32.46875 -58.921875 L 18.109375 -58.921875 L 18.109375 -44.71875 L 31.875 -44.71875 L 31.875 -30.953125 L 18.109375 -30.953125 L 18.109375 -14.203125 L 33.40625 -14.203125 L 33.40625 0 Z M 3.234375 0 "/></g></g></g><g fill="#000000" fill-opacity="1"><g transform="translate(489.651493, 86.988304)"><g><path d="M 2.296875 0 L 2.296875 -12.40625 L 17.171875 -12.40625 L 17.171875 0 Z M 2.296875 0 "/></g></g></g><g fill="#000000" fill-opacity="1"><g transform="translate(509.117618, 86.988304)"><g><path d="M 2.296875 0 L 2.296875 -12.40625 L 17.171875 -12.40625 L 17.171875 0 Z M 2.296875 0 "/></g></g></g><g fill="#000000" fill-opacity="1"><g transform="translate(528.583743, 86.988304)"><g><path d="M 2.296875 0 L 2.296875 -12.40625 L 17.171875 -12.40625 L 17.171875 0 Z M 2.296875 0 "/></g></g></g><g fill="#000000" fill-opacity="1"><g transform="translate(548.049868, 86.988304)"><g><path d="M 2.296875 0 L 2.296875 -12.40625 L 17.171875 -12.40625 L 17.171875 0 Z M 2.296875 0 "/></g></g></g><g fill="#000000" fill-opacity="1"><g transform="translate(567.515993, 86.988304)"><g/></g></g><g fill="#000000" fill-opacity="1"><g transform="translate(587.40714, 86.988304)"><g><path d="M 3.234375 0 L 3.234375 -73.03125 L 32.46875 -73.03125 L 32.46875 -58.921875 L 18.109375 -58.921875 L 18.109375 -44.71875 L 31.875 -44.71875 L 31.875 -30.953125 L 18.109375 -30.953125 L 18.109375 -14.203125 L 33.40625 -14.203125 L 33.40625 0 Z M 3.234375 0 "/></g></g></g><g fill="#000000" fill-opacity="1"><g transform="translate(622.429157, 86.988304)"><g><path d="M 9.953125 0 L 0.9375 -73.109375 L 14.875 -73.109375 L 20.234375 -23.375 L 25 -73.109375 L 38.9375 -73.109375 L 29.921875 0 Z M 9.953125 0 "/></g></g></g><g fill="#000000" fill-opacity="1"><g transform="translate(662.296491, 86.988304)"><g><path d="M 3.234375 0 L 3.234375 -73.03125 L 32.46875 -73.03125 L 32.46875 -58.921875 L 18.109375 -58.921875 L 18.109375 -44.71875 L 31.875 -44.71875 L 31.875 -30.953125 L 18.109375 -30.953125 L 18.109375 -14.203125 L 33.40625 -14.203125 L 33.40625 0 Z M 3.234375 0 "/></g></g></g><g fill="#000000" fill-opacity="1"><g transform="translate(697.318508, 86.988304)"><g><path d="M 3.234375 -73.03125 L 25.671875 -73.03125 C 29.242188 -73.03125 32.003906 -72.222656 33.953125 -70.609375 C 35.910156 -68.992188 37.226562 -66.722656 37.90625 -63.796875 C 38.59375 -60.878906 38.9375 -57.15625 38.9375 -52.625 C 38.9375 -48.488281 38.394531 -45.257812 37.3125 -42.9375 C 36.238281 -40.613281 34.367188 -39 31.703125 -38.09375 C 33.921875 -37.632812 35.523438 -36.523438 36.515625 -34.765625 C 37.503906 -33.015625 38 -30.632812 38 -27.625 L 37.828125 0 L 23.546875 0 L 23.546875 -28.5625 C 23.546875 -30.601562 23.148438 -31.90625 22.359375 -32.46875 C 21.566406 -33.039062 20.117188 -33.328125 18.015625 -33.328125 L 18.015625 0 L 3.234375 0 Z M 21.59375 -46 C 23.632812 -46 24.65625 -48.207031 24.65625 -52.625 C 24.65625 -54.550781 24.566406 -55.992188 24.390625 -56.953125 C 24.222656 -57.921875 23.910156 -58.585938 23.453125 -58.953125 C 23.003906 -59.328125 22.359375 -59.515625 21.515625 -59.515625 L 18.109375 -59.515625 L 18.109375 -46 Z M 21.59375 -46 "/></g></g></g><g fill="#000000" fill-opacity="1"><g transform="translate(737.865895, 86.988304)"><g><path d="M 12.078125 0 L 12.078125 -24.0625 L 0.421875 -73.03125 L 14.875 -73.03125 L 18.953125 -48.28125 L 23.046875 -73.03125 L 37.484375 -73.03125 L 25.84375 -24.0625 L 25.84375 0 Z M 12.078125 0 "/></g></g></g><g fill="#000000" fill-opacity="1"><g transform="translate(775.778112, 86.988304)"><g><path d="M 9.515625 0 L 9.515625 -59 L 0.84375 -59 L 0.84375 -73.03125 L 32.8125 -73.03125 L 32.8125 -59 L 24.140625 -59 L 24.140625 0 Z M 9.515625 0 "/></g></g></g><g fill="#000000" fill-opacity="1"><g transform="translate(809.440116, 86.988304)"><g><path d="M 3.234375 0 L 3.234375 -73.03125 L 17.765625 -73.03125 L 17.765625 -46.921875 L 24.65625 -46.921875 L 24.65625 -73.03125 L 39.1875 -73.03125 L 39.1875 0 L 24.65625 0 L 24.65625 -33.15625 L 17.765625 -33.15625 L 17.765625 0 Z M 3.234375 0 "/></g></g></g><g fill="#000000" fill-opacity="1"><g transform="translate(851.857578, 86.988304)"><g><path d="M 2.546875 0 L 2.546875 -73.03125 L 16.65625 -73.03125 L 16.65625 0 Z M 2.546875 0 "/></g></g></g><g fill="#000000" fill-opacity="1"><g transform="translate(871.153713, 86.988304)"><g><path d="M 3.234375 0 L 3.234375 -73.03125 L 18.28125 -73.03125 L 25 -38.09375 L 25 -73.03125 L 39.109375 -73.03125 L 39.109375 0 L 24.828125 0 L 17.515625 -36.5625 L 17.515625 0 Z M 3.234375 0 "/></g></g></g><g fill="#000000" fill-opacity="1"><g transform="translate(913.486226, 86.988304)"><g><path d="M 18.28125 0.6875 C 13.007812 0.6875 9.082031 -1.164062 6.5 -4.875 C 3.925781 -8.59375 2.640625 -14.222656 2.640625 -21.765625 L 2.640625 -53.21875 C 2.640625 -59.96875 4.140625 -65.066406 7.140625 -68.515625 C 10.140625 -71.972656 14.617188 -73.703125 20.578125 -73.703125 C 25.390625 -73.703125 29.128906 -72.738281 31.796875 -70.8125 C 34.460938 -68.882812 36.304688 -66.078125 37.328125 -62.390625 C 38.347656 -58.710938 38.859375 -53.984375 38.859375 -48.203125 L 24.5625 -48.203125 L 24.5625 -54.75 C 24.5625 -56.507812 24.320312 -57.867188 23.84375 -58.828125 C 23.363281 -59.796875 22.5 -60.28125 21.25 -60.28125 C 18.476562 -60.28125 17.09375 -58.460938 17.09375 -54.828125 L 17.09375 -19.46875 C 17.09375 -17.257812 17.375 -15.585938 17.9375 -14.453125 C 18.5 -13.316406 19.488281 -12.75 20.90625 -12.75 C 22.332031 -12.75 23.328125 -13.316406 23.890625 -14.453125 C 24.453125 -15.585938 24.734375 -17.257812 24.734375 -19.46875 L 24.734375 -29.921875 L 20.828125 -29.921875 L 20.828125 -42.5 L 38.6875 -42.5 L 38.6875 0 L 32.8125 0 L 30.34375 -6.125 C 27.738281 -1.582031 23.71875 0.6875 18.28125 0.6875 Z M 18.28125 0.6875 "/></g></g></g></svg>